<svg xmlns="http://www.w3.org/2000/svg" width="207" height="56" viewBox="0 0 207 56" fill="none">
  <path fill-rule="evenodd" clip-rule="evenodd"
    d="M28 0C12.536 5.87559e-05 0 12.5361 0 28C0 43.4639 12.536 55.9999 28 56V0Z" fill="#1C232C"></path>
  <path opacity="0.01" fill-rule="evenodd" clip-rule="evenodd"
    d="M27.7275 0C27.7275 0 27.7276 0 27.7276 0C43.1915 0 55.7275 12.536 55.7275 28C55.7275 43.464 43.1915 56 27.7276 56C27.7276 56 27.7275 56 27.7275 56V0Z"
    fill="#1C232C"></path>
  <path
    d="M38.6797 23V8.99996H45.5797C47.033 8.99996 48.1464 9.29996 48.9197 9.89996C49.693 10.4866 50.0797 11.2466 50.0797 12.18C50.0797 13.0733 49.7464 13.78 49.0797 14.3C48.413 14.8066 47.5464 15.08 46.4797 15.12V16.16C47.693 16.1866 48.673 16.4666 49.4197 17C50.1664 17.52 50.5397 18.2933 50.5397 19.32C50.5397 20.44 50.0797 21.3333 49.1597 22C48.2397 22.6666 46.9864 23 45.3997 23H38.6797ZM41.7197 14.54H44.9197C46.333 14.54 47.0397 14.0333 47.0397 13.02C47.0397 12.4866 46.8597 12.1066 46.4997 11.88C46.153 11.64 45.6264 11.52 44.9197 11.52H41.7197V14.54ZM41.7197 20.48H44.9597C46.5864 20.48 47.3997 19.9 47.3997 18.74C47.3997 17.5666 46.5864 16.98 44.9597 16.98H41.7197V20.48Z"
    fill="#1C232C"></path>
  <path d="M52.6347 11.64V8.95996H55.6547V11.64H52.6347ZM52.7347 23V13H55.5747V23H52.7347Z"
    fill="#1C232C"></path>
  <path
    d="M58.3016 23V13H60.8616C60.8616 14.0666 60.5749 15.08 60.0016 16.04H61.2016C61.4549 14.9066 61.8282 14.0866 62.3216 13.58C62.8149 13.06 63.5682 12.8 64.5816 12.8C64.9149 12.8 65.1149 12.8066 65.1816 12.82V15.74C64.7949 15.7 64.4282 15.68 64.0816 15.68C63.0149 15.68 62.2549 15.9333 61.8016 16.44C61.3616 16.9466 61.1416 17.8533 61.1416 19.16V23H58.3016Z"
    fill="#1C232C"></path>
  <path d="M66.7753 11.64V8.95996H69.7953V11.64H66.7753ZM66.8753 23V13H69.7153V23H66.8753Z"
    fill="#1C232C"></path>
  <path
    d="M72.4422 23V13H75.0022C74.9889 13.6 74.6622 14.3666 74.0222 15.3H75.2622C75.5289 14.5 75.9222 13.8666 76.4422 13.4C76.9622 12.9333 77.5889 12.7 78.3222 12.7C79.4022 12.7 80.2355 13.0333 80.8222 13.7C81.4222 14.3533 81.7222 15.2466 81.7222 16.38V23H78.8822V16.92C78.8822 15.6666 78.3489 15.04 77.2822 15.04C76.6822 15.04 76.2355 15.22 75.9422 15.58C75.5022 16.1133 75.2822 17.0066 75.2822 18.26V23H72.4422Z"
    fill="#1C232C"></path>
  <path
    d="M83.6958 17.98C83.6958 16.42 84.2091 15.1533 85.2358 14.18C86.2624 13.1933 87.5424 12.7 89.0758 12.7C90.2224 12.7 91.2158 12.9733 92.0558 13.52C92.8958 14.0666 93.4891 14.7933 93.8358 15.7L91.2158 16.68C90.8024 15.52 90.0558 14.94 88.9758 14.94C88.2691 14.94 87.6891 15.2066 87.2358 15.74C86.7824 16.2733 86.5558 17.02 86.5558 17.98C86.5558 18.94 86.7824 19.6933 87.2358 20.24C87.7024 20.7866 88.2891 21.06 88.9958 21.06C90.0891 21.06 90.8624 20.4266 91.3158 19.16L93.9958 20.12C93.6091 21.0933 92.9758 21.8733 92.0958 22.46C91.2158 23.0333 90.2024 23.32 89.0558 23.32C87.4958 23.32 86.2091 22.8266 85.1958 21.84C84.1958 20.8533 83.6958 19.5666 83.6958 17.98Z"
    fill="#1C232C"></path>
  <path
    d="M95.782 23V8.99996H98.622V11.12C98.622 12.72 98.202 14.1133 97.362 15.3H98.602C98.8687 14.5 99.262 13.8666 99.782 13.4C100.302 12.9333 100.929 12.7 101.662 12.7C102.742 12.7 103.575 13.0333 104.162 13.7C104.762 14.3533 105.062 15.2466 105.062 16.38V23H102.222V16.92C102.222 15.6666 101.689 15.04 100.622 15.04C100.022 15.04 99.5754 15.22 99.282 15.58C98.842 16.1133 98.622 17.0066 98.622 18.26V23H95.782Z"
    fill="#1C232C"></path>
  <path d="M107.596 11.64V8.95996H110.616V11.64H107.596ZM107.696 23V13H110.536V23H107.696Z"
    fill="#1C232C"></path>
  <path d="M118.27 23V8.99996H121.31V23H118.27Z" fill="#1C232C"></path>
  <path
    d="M124.18 23V13H126.74C126.727 13.6 126.4 14.3666 125.76 15.3H127C127.267 14.5 127.66 13.8666 128.18 13.4C128.7 12.9333 129.327 12.7 130.06 12.7C131.14 12.7 131.974 13.0333 132.56 13.7C133.16 14.3533 133.46 15.2466 133.46 16.38V23H130.62V16.92C130.62 15.6666 130.087 15.04 129.02 15.04C128.42 15.04 127.974 15.22 127.68 15.58C127.24 16.1133 127.02 17.0066 127.02 18.26V23H124.18Z"
    fill="#1C232C"></path>
  <path
    d="M143.534 23L140.414 18.84L138.954 20.26V23H136.114V8.99996H138.954V13.42C138.954 14.34 138.841 15.04 138.614 15.52C138.401 16 138.034 16.46 137.514 16.9L138.274 17.72L142.974 13H146.454L142.374 16.96L147.114 23H143.534Z"
    fill="#1C232C"></path>
  <path d="M148.243 23V8.99996H151.083V23H148.243Z" fill="#1C232C"></path>
  <path
    d="M160.468 13H163.428L159.248 24.6C158.942 25.4133 158.555 26 158.088 26.36C157.622 26.72 156.962 26.9 156.108 26.9H153.128V24.64H155.728C156.088 24.64 156.355 24.5666 156.528 24.42C156.702 24.2733 156.868 23.9733 157.028 23.52L157.208 23L152.368 13H155.448L157.108 16.84C157.535 17.7733 157.755 19.0133 157.768 20.56H158.828C158.855 19.4533 158.882 18.7066 158.908 18.32C158.975 17.8133 159.102 17.26 159.288 16.66L160.468 13Z"
    fill="#1C232C"></path>
  <path
    d="M164.92 19.74V13H167.76V19.08C167.76 20.3333 168.26 20.96 169.26 20.96C169.927 20.96 170.427 20.6933 170.76 20.16C171.093 19.6266 171.26 18.8866 171.26 17.94V13H174.1V23H171.46C171.473 22.3733 171.793 21.6066 172.42 20.7H171.2C170.92 21.5 170.507 22.14 169.96 22.62C169.427 23.0866 168.787 23.32 168.04 23.32C167.093 23.32 166.333 23 165.76 22.36C165.2 21.7066 164.92 20.8333 164.92 19.74Z"
    fill="#1C232C"></path>
  <path
    d="M176.256 23V20.2L181.876 14.78L181.156 14.02C180.743 14.4333 180.343 14.7466 179.956 14.96C179.57 15.16 179.056 15.26 178.416 15.26H176.496V13H184.536V15.44L178.556 21.22L179.276 21.96C180.196 21.1466 181.163 20.74 182.176 20.74H184.796V23H176.256Z"
    fill="#1C232C"></path>
  <path d="M186.717 11.64V8.95996H189.737V11.64H186.717ZM186.817 23V13H189.657V23H186.817Z"
    fill="#1C232C"></path>
  <path
    d="M195.004 23L191.164 13H194.144L195.524 17.1C195.804 17.94 195.97 18.6 196.024 19.08C196.117 19.68 196.17 20.4133 196.184 21.28H197.244C197.257 20.2933 197.297 19.5266 197.364 18.98C197.444 18.46 197.597 17.8333 197.824 17.1L199.144 13H202.044L198.404 23H195.004Z"
    fill="#1C232C"></path>
  <path
    d="M38.6797 47V33H45.5997C47.0797 33 48.2464 33.3333 49.0997 34C49.953 34.6666 50.3797 35.56 50.3797 36.68C50.3797 37.6 50.153 38.2933 49.6997 38.76C49.2997 39.2 48.8197 39.5 48.2597 39.66C47.713 39.82 46.9797 39.92 46.0597 39.96V41C47.3664 41.04 48.3064 41.2333 48.8797 41.58C49.453 41.9266 49.8397 42.6133 50.0397 43.64L50.6197 47H47.3797L46.9597 43.9C46.8397 43.0866 46.5797 42.5133 46.1797 42.18C45.7797 41.8466 45.1397 41.68 44.2597 41.68H41.7197V47H38.6797ZM41.7197 39.22H45.0197C45.6997 39.22 46.233 39.06 46.6197 38.74C47.0197 38.42 47.2197 37.96 47.2197 37.36C47.2197 36.7733 47.0197 36.32 46.6197 36C46.233 35.68 45.6997 35.52 45.0197 35.52H41.7197V39.22Z"
    fill="#1C232C"></path>
  <path
    d="M52.3114 44.44C52.3247 43.7866 52.4847 43.22 52.7914 42.74C53.0981 42.26 53.5381 41.8733 54.1114 41.58C54.6981 41.2866 55.3447 41.06 56.0514 40.9C56.7714 40.7266 57.6181 40.5933 58.5914 40.5V40.12C58.5914 39.2 58.0447 38.74 56.9514 38.74C55.7381 38.74 55.0047 39.2666 54.7514 40.32L52.1914 39.76C52.2714 38.92 52.7381 38.2 53.5914 37.6C54.4581 37 55.5714 36.7 56.9314 36.7C58.3714 36.7 59.4714 37.0266 60.2314 37.68C61.0047 38.3333 61.3914 39.3 61.3914 40.58V44.24C61.3914 44.5066 61.4247 44.6733 61.4914 44.74C61.5581 44.8066 61.7247 44.84 61.9914 44.84H62.8714V47H61.6914C60.8381 47 60.2647 46.8533 59.9714 46.56C59.6914 46.2533 59.5381 45.7066 59.5114 44.92H58.5714C58.0647 46.52 57.0447 47.32 55.5114 47.32C54.5914 47.32 53.8247 47.0533 53.2114 46.52C52.6114 45.9866 52.3114 45.2933 52.3114 44.44ZM58.5914 42.9V42.26C57.4447 42.4066 56.5914 42.6133 56.0314 42.88C55.4714 43.1466 55.1914 43.5733 55.1914 44.16C55.1914 44.88 55.6247 45.24 56.4914 45.24C57.0914 45.24 57.5914 45.04 57.9914 44.64C58.3914 44.24 58.5914 43.66 58.5914 42.9Z"
    fill="#1C232C"></path>
  <path
    d="M71.3158 50.9V49.04C71.3291 47.9866 71.4158 47.1933 71.5758 46.66C71.7491 46.1133 72.0158 45.54 72.3758 44.94H71.1758C70.8558 45.7 70.4358 46.2866 69.9158 46.7C69.3958 47.1133 68.7091 47.32 67.8558 47.32C66.6424 47.32 65.6491 46.8266 64.8758 45.84C64.1158 44.8533 63.7358 43.5733 63.7358 42C63.7358 40.4266 64.1158 39.1466 64.8758 38.16C65.6491 37.1733 66.6424 36.68 67.8558 36.68C68.7758 36.7066 69.4758 36.92 69.9558 37.32C70.4491 37.7066 70.8758 38.28 71.2358 39.04H72.4358C71.8624 38.2133 71.5758 37.5333 71.5758 37H74.1558V50.9H71.3158ZM71.4358 42C71.4358 40.9866 71.2224 40.2066 70.7958 39.66C70.3691 39.1133 69.7891 38.84 69.0558 38.84C67.4958 38.84 66.7158 39.8933 66.7158 42C66.7158 44.12 67.4958 45.18 69.0558 45.18C69.8024 45.18 70.3824 44.9066 70.7958 44.36C71.2224 43.8133 71.4358 43.0266 71.4358 42Z"
    fill="#1C232C"></path>
  <path
    d="M76.3348 44.44C76.3482 43.7866 76.5082 43.22 76.8148 42.74C77.1215 42.26 77.5615 41.8733 78.1348 41.58C78.7215 41.2866 79.3682 41.06 80.0748 40.9C80.7948 40.7266 81.6415 40.5933 82.6148 40.5V40.12C82.6148 39.2 82.0682 38.74 80.9748 38.74C79.7615 38.74 79.0282 39.2666 78.7748 40.32L76.2148 39.76C76.2948 38.92 76.7615 38.2 77.6148 37.6C78.4815 37 79.5948 36.7 80.9548 36.7C82.3948 36.7 83.4948 37.0266 84.2548 37.68C85.0282 38.3333 85.4148 39.3 85.4148 40.58V44.24C85.4148 44.5066 85.4482 44.6733 85.5148 44.74C85.5815 44.8066 85.7482 44.84 86.0148 44.84H86.8948V47H85.7148C84.8615 47 84.2882 46.8533 83.9948 46.56C83.7148 46.2533 83.5615 45.7066 83.5348 44.92H82.5948C82.0882 46.52 81.0682 47.32 79.5348 47.32C78.6148 47.32 77.8482 47.0533 77.2348 46.52C76.6348 45.9866 76.3348 45.2933 76.3348 44.44ZM82.6148 42.9V42.26C81.4682 42.4066 80.6148 42.6133 80.0548 42.88C79.4948 43.1466 79.2148 43.5733 79.2148 44.16C79.2148 44.88 79.6482 45.24 80.5148 45.24C81.1148 45.24 81.6148 45.04 82.0148 44.64C82.4148 44.24 82.6148 43.66 82.6148 42.9Z"
    fill="#1C232C"></path>
  <path
    d="M88.3992 47V37H90.8392C90.8392 37.6533 90.5726 38.3466 90.0392 39.08H91.2992C91.4726 38.3333 91.7859 37.7533 92.2392 37.34C92.6926 36.9133 93.2726 36.7 93.9792 36.7C94.6326 36.7 95.1992 36.9066 95.6792 37.32C96.1726 37.7333 96.4859 38.32 96.6192 39.08H97.5592C97.7992 38.32 98.1726 37.7333 98.6792 37.32C99.1859 36.9066 99.7659 36.7 100.419 36.7C101.379 36.7 102.159 37.0333 102.759 37.7C103.373 38.3533 103.679 39.2866 103.679 40.5V47H100.839V40.92C100.839 39.6666 100.319 39.04 99.2792 39.04C98.8792 39.0533 98.5459 39.14 98.2792 39.3C98.0126 39.46 97.8192 39.6933 97.6992 40C97.5926 40.2933 97.5192 40.58 97.4792 40.86C97.4526 41.14 97.4392 41.4866 97.4392 41.9V47H94.6392V40.92C94.6392 39.6666 94.1192 39.04 93.0792 39.04C92.6792 39.0533 92.3459 39.14 92.0792 39.3C91.8126 39.46 91.6192 39.6933 91.4992 40C91.3926 40.2933 91.3192 40.58 91.2792 40.86C91.2526 41.14 91.2392 41.4866 91.2392 41.9V47H88.3992Z"
    fill="#1C232C"></path>
  <path d="M106.348 47V33H109.188V47H106.348Z" fill="#1C232C"></path>
  <path d="M111.834 35.64V32.96H114.854V35.64H111.834ZM111.934 47V37H114.774V47H111.934Z"
    fill="#1C232C"></path>
  <path
    d="M121.668 40.06C121.628 38.0066 122.334 36.2533 123.788 34.8C125.254 33.3466 127.021 32.64 129.088 32.68C130.834 32.68 132.268 33.0733 133.388 33.86C134.521 34.6466 135.288 35.68 135.688 36.96L132.828 38.02C132.201 36.14 130.954 35.2 129.088 35.2C127.821 35.2 126.794 35.64 126.008 36.52C125.221 37.3866 124.828 38.5666 124.828 40.06C124.828 41.5 125.221 42.6533 126.008 43.52C126.808 44.3866 127.808 44.82 129.008 44.82C130.061 44.82 130.901 44.5733 131.528 44.08C132.154 43.5866 132.521 43 132.628 42.32H128.108V39.8H135.608V47H132.868C132.868 46.08 133.181 45.1266 133.808 44.14H132.568C132.208 45.0466 131.714 45.7933 131.088 46.38C130.421 47.0066 129.468 47.32 128.228 47.32C126.428 47.3466 124.874 46.6866 123.568 45.34C122.274 43.9933 121.641 42.2333 121.668 40.06Z"
    fill="#1C232C"></path>
  <path
    d="M137.546 44.44C137.559 43.7866 137.719 43.22 138.026 42.74C138.332 42.26 138.772 41.8733 139.346 41.58C139.932 41.2866 140.579 41.06 141.286 40.9C142.006 40.7266 142.852 40.5933 143.826 40.5V40.12C143.826 39.2 143.279 38.74 142.186 38.74C140.972 38.74 140.239 39.2666 139.986 40.32L137.426 39.76C137.506 38.92 137.972 38.2 138.826 37.6C139.692 37 140.806 36.7 142.166 36.7C143.606 36.7 144.706 37.0266 145.466 37.68C146.239 38.3333 146.626 39.3 146.626 40.58V44.24C146.626 44.5066 146.659 44.6733 146.726 44.74C146.792 44.8066 146.959 44.84 147.226 44.84H148.106V47H146.926C146.072 47 145.499 46.8533 145.206 46.56C144.926 46.2533 144.772 45.7066 144.746 44.92H143.806C143.299 46.52 142.279 47.32 140.746 47.32C139.826 47.32 139.059 47.0533 138.446 46.52C137.846 45.9866 137.546 45.2933 137.546 44.44ZM143.826 42.9V42.26C142.679 42.4066 141.826 42.6133 141.266 42.88C140.706 43.1466 140.426 43.5733 140.426 44.16C140.426 44.88 140.859 45.24 141.726 45.24C142.326 45.24 142.826 45.04 143.226 44.64C143.626 44.24 143.826 43.66 143.826 42.9Z"
    fill="#1C232C"></path>
  <path d="M149.61 47V33H152.45V47H149.61Z" fill="#1C232C"></path>
  <path
    d="M154.556 41.98C154.556 40.4466 155.036 39.1866 155.996 38.2C156.956 37.2 158.162 36.7 159.616 36.7C161.122 36.7 162.309 37.1933 163.176 38.18C164.042 39.1666 164.476 40.44 164.476 42C164.476 42.3066 164.469 42.5333 164.456 42.68H157.396C157.436 43.4933 157.656 44.1133 158.056 44.54C158.456 44.9533 158.982 45.16 159.636 45.16C160.676 45.16 161.449 44.58 161.956 43.42L164.496 44.4C164.149 45.2 163.589 45.8933 162.816 46.48C162.056 47.04 160.996 47.32 159.636 47.32C158.102 47.32 156.869 46.84 155.936 45.88C155.016 44.9066 154.556 43.6066 154.556 41.98ZM157.496 40.68H161.656C161.509 39.3866 160.829 38.74 159.616 38.74C159.042 38.74 158.569 38.9066 158.196 39.24C157.822 39.5733 157.589 40.0533 157.496 40.68Z"
    fill="#1C232C"></path>
  <path
    d="M166.622 47V37H169.182C169.182 38.0666 168.895 39.08 168.322 40.04H169.522C169.775 38.9066 170.149 38.0866 170.642 37.58C171.135 37.06 171.889 36.8 172.902 36.8C173.235 36.8 173.435 36.8066 173.502 36.82V39.74C173.115 39.7 172.749 39.68 172.402 39.68C171.335 39.68 170.575 39.9333 170.122 40.44C169.682 40.9466 169.462 41.8533 169.462 43.16V47H166.622Z"
    fill="#1C232C"></path>
  <path
    d="M174.165 41.98C174.165 40.4466 174.645 39.1866 175.605 38.2C176.565 37.2 177.772 36.7 179.225 36.7C180.732 36.7 181.918 37.1933 182.785 38.18C183.652 39.1666 184.085 40.44 184.085 42C184.085 42.3066 184.078 42.5333 184.065 42.68H177.005C177.045 43.4933 177.265 44.1133 177.665 44.54C178.065 44.9533 178.592 45.16 179.245 45.16C180.285 45.16 181.058 44.58 181.565 43.42L184.105 44.4C183.758 45.2 183.198 45.8933 182.425 46.48C181.665 47.04 180.605 47.32 179.245 47.32C177.712 47.32 176.478 46.84 175.545 45.88C174.625 44.9066 174.165 43.6066 174.165 41.98ZM177.105 40.68H181.265C181.118 39.3866 180.438 38.74 179.225 38.74C178.652 38.74 178.178 38.9066 177.805 39.24C177.432 39.5733 177.198 40.0533 177.105 40.68Z"
    fill="#1C232C"></path>
  <path
    d="M192.539 37H195.499L191.319 48.6C191.012 49.4133 190.625 50 190.159 50.36C189.692 50.72 189.032 50.9 188.179 50.9H185.199V48.64H187.799C188.159 48.64 188.425 48.5666 188.599 48.42C188.772 48.2733 188.939 47.9733 189.099 47.52L189.279 47L184.439 37H187.519L189.179 40.84C189.605 41.7733 189.825 43.0133 189.839 44.56H190.899C190.925 43.4533 190.952 42.7066 190.979 42.32C191.045 41.8133 191.172 41.26 191.359 40.66L192.539 37Z"
    fill="#1C232C"></path>
  <path
    d="M196.14 44.44C196.153 43.7866 196.313 43.22 196.62 42.74C196.926 42.26 197.366 41.8733 197.94 41.58C198.526 41.2866 199.173 41.06 199.88 40.9C200.6 40.7266 201.446 40.5933 202.42 40.5V40.12C202.42 39.2 201.873 38.74 200.78 38.74C199.566 38.74 198.833 39.2666 198.58 40.32L196.02 39.76C196.1 38.92 196.566 38.2 197.42 37.6C198.286 37 199.4 36.7 200.76 36.7C202.2 36.7 203.3 37.0266 204.06 37.68C204.833 38.3333 205.22 39.3 205.22 40.58V44.24C205.22 44.5066 205.253 44.6733 205.32 44.74C205.386 44.8066 205.553 44.84 205.82 44.84H206.7V47H205.52C204.666 47 204.093 46.8533 203.8 46.56C203.52 46.2533 203.366 45.7066 203.34 44.92H202.4C201.893 46.52 200.873 47.32 199.34 47.32C198.42 47.32 197.653 47.0533 197.04 46.52C196.44 45.9866 196.14 45.2933 196.14 44.44ZM202.42 42.9V42.26C201.273 42.4066 200.42 42.6133 199.86 42.88C199.3 43.1466 199.02 43.5733 199.02 44.16C199.02 44.88 199.453 45.24 200.32 45.24C200.92 45.24 201.42 45.04 201.82 44.64C202.22 44.24 202.42 43.66 202.42 42.9Z"
    fill="#1C232C"></path>
</svg>